/* XPM */
static char *ef0d25fdf0694dc4d321181deccba95dqXqGiLIDwArN0NQI[] = {
/* columns rows colors chars-per-pixel */
"50 50 183 2 ",
"   c #927F3B",
".  c #947F3E",
"X  c #958240",
"o  c #9B8844",
"O  c #9D8A45",
"+  c #A08D4B",
"@  c #A18E4C",
"#  c #A48F4E",
"$  c #A3904C",
"%  c #A3904E",
"&  c #A69150",
"*  c #AC9954",
"=  c #AD9A55",
"-  c #AD9857",
";  c #AF9B56",
":  c #AF9C58",
">  c #B3A05E",
",  c #B5A05D",
"<  c #B4A15F",
"1  c #B7A25F",
"2  c #B8A360",
"3  c #B9A461",
"4  c #BAA562",
"5  c #BAA762",
"6  c #BBA663",
"7  c #BAA763",
"8  c #B9A664",
"9  c #BBA665",
"0  c #BCA967",
"q  c #BEAB66",
"w  c #BFAC68",
"e  c #C0AB6A",
"r  c #C0AD6B",
"t  c #C1AE6C",
"y  c #C3AE6D",
"u  c #C6B16E",
"i  c #C6B36E",
"p  c #C7B46F",
"a  c #C7B470",
"s  c #C7B472",
"d  c #C9B672",
"f  c #CAB772",
"g  c #CAB773",
"h  c #CBB873",
"j  c #CDB877",
"k  c #D1BC7B",
"l  c #D3C07B",
"z  c #D7C482",
"x  c #D8C581",
"c  c #D9C682",
"v  c #DECB89",
"b  c #DFCC88",
"n  c #E1CE8A",
"m  c #E3CF8A",
"M  c #E2CD8C",
"N  c #E6D18E",
"B  c #E6D391",
"V  c #E7D492",
"C  c #E8D392",
"Z  c #EBD695",
"A  c #EAD795",
"S  c #ECD796",
"D  c #EBD894",
"F  c #EBD896",
"G  c #ECD994",
"H  c #ECD995",
"J  c #EDDA96",
"K  c #EEDB96",
"L  c #EEDB97",
"P  c #EFDE96",
"I  c #EED998",
"U  c #EFDA99",
"Y  c #EFDC98",
"T  c #EFDE98",
"R  c #F0DC95",
"E  c #F2DE97",
"W  c #F0DD99",
"Q  c #F1DE99",
"!  c #F0DD9B",
"~  c #F2DD9A",
"^  c #F1DE9A",
"/  c #F2DF9A",
"(  c #F3DF9A",
")  c #F3DE9B",
"_  c #F2DF9B",
"`  c #F2DD9C",
"'  c #F2DF9D",
"]  c #F4DF9C",
"[  c #F1E098",
"{  c #F2E098",
"}  c #F2E199",
"|  c #F3E199",
" . c #F3E09B",
".. c #F3E29A",
"X. c #F4E099",
"o. c #F4E09B",
"O. c #F4E29A",
"+. c #F4E39B",
"@. c #F5E39B",
"#. c #F2E49B",
"$. c #F3E09C",
"%. c #F3E29C",
"&. c #F3E09E",
"*. c #F5E09D",
"=. c #F4E19D",
"-. c #F5E29D",
";. c #F4E39D",
":. c #F7E39C",
">. c #F4E19F",
",. c #F6E19E",
"<. c #F5E29E",
"1. c #F6E39E",
"2. c #F7E39E",
"3. c #F7E29F",
"4. c #F3E59C",
"5. c #F5E49C",
"6. c #F6E49C",
"7. c #F6E59D",
"8. c #F7E59D",
"9. c #F7E49F",
"0. c #F6E59F",
"q. c #F7E69E",
"w. c #F8E49F",
"e. c #F8E79F",
"r. c #F9E79F",
"t. c #F5E2A0",
"y. c #F6E3A1",
"u. c #F7E4A0",
"i. c #F7E4A2",
"p. c #F8E3A0",
"a. c #F8E5A0",
"s. c #F8E5A1",
"d. c #F9E6A1",
"f. c #FBE7A0",
"g. c #F8E5A3",
"h. c #F9E6A2",
"j. c #FAE7A2",
"k. c #FBE6A3",
"l. c #FAE7A3",
"z. c #F9E6A4",
"x. c #FBE6A5",
"c. c #FAE7A5",
"v. c #FCE7A4",
"b. c #FCE7A6",
"n. c #F9E8A0",
"m. c #FBE9A1",
"M. c #FBE8A3",
"N. c #FCE8A3",
"B. c #FCEAA2",
"V. c #FCEBA3",
"C. c #FDEBA3",
"Z. c #FBE8A4",
"A. c #FBE8A6",
"S. c #FDE9A4",
"D. c #FDE8A5",
"F. c #FCE9A5",
"G. c #FDE8A7",
"H. c #FCE9A7",
"J. c #FDEAA6",
"K. c #FEEBA7",
"L. c #FFECA7",
"P. c #FEE9A8",
"I. c #FDEAA8",
"U. c #FEEBA9",
"Y. c #FFECA8",
"T. c #FFECA9",
"R. c #FFEDA9",
"E. c #FFEEA9",
"W. c #FFECAA",
"Q. c #FFEEAA",
"!. c #FFEEAB",
"~. c #FFEFAB",
"^. c #FFEDAC",
"/. c #FFF3AB",
"(. c #FFF1AD",
"). c #FFF2AD",
"_. c #FFF0AE",
"`. c #FFF1AF",
"'. c #FFF3AF",
"]. c #FFF5AE",
"[. c #FFF2B0",
"{. c #FFF3B1",
"}. c #FFF5B0",
/* pixels */
"u.<.$.s.$.s.R.(.R.R.<.<.^ <.<.<.s.| 6.6.6.m.| 6.6.6.6.6.6.6.6.6.6.6.6.6.6.6.6.6.6.6.6.6.6.6.6.6.6.6.",
"s.J s.<.^ R.d 7 7 7 ] R.D.p.^ <.s.o.6.6.6.6.6.6.6.6.6.6.6.6.6.6.6.6.6.6.6.6.6.6.6.6.6.6.6.6.6.6.6.6.",
"y.u.y.c.V X r 0 t s & t M ^.c.A.<.6.| 6.6.o.6.6.6.6.6.6.6.6.6.6.6.6.6.6.6.6.6.6.6.6.6.6.6.6.6.6.6.6.",
"<.I.F + % A c.(.I.R.S e & k A D.^ o.| 6.6.| 6.| 6.6.6.6.6.6.6.6.6.6.6.6.6.6.6.6.6.6.6.6.6.6.6.6.6.6.",
"s.(.@ z $.I.u.' y.^ v.D.U # C D.^ 6.| 6.6.| 6.| 6.6.6.6.6.6.6.6.6.6.6.6.6.6.6.6.6.6.6.6.6.6.6.6.6.6.",
"A.v > $.A.A y.<.$.u.' U I.j 8 s.6.6.6.o.+.| 6.6.6.6.6.6.6.6.6.6.6.6.6.6.6.6.6.6.6.6.6.6.6.6.6.6.6.6.",
"I.< s {.$.I.y.<.D.<.s.I.u.y.. J <.6.6.o.| 6.6.6.6.6.6.6.6.6.6.6.6.6.6.6.6.6.6.6.6.6.6.6.6.6.6.6.6.6.",
"{.t 8 I.' ' s.y.u.$.c.y.s.B ; R.Y K 6.6.6.m.| 6.6.6.6.6.6.6.6.6.6.6.6.6.6.6.6.6.6.6.6.6.6.6.6.6.6.6.",
"v.2 d (.F s.^ A.D.J <.s.^ D.  $.6.e.w.6.| 6.6.6.6.6.6.6.6.6.6.6.6.6.6.6.6.6.6.6.6.6.6.6.6.6.6.6.6.6.",
"D.N % <.D.s.s.^ Y R.D.<.R.w s s.6.6.6.6.o.6.6.6.6.6.6.6.6.6.6.6.6.6.6.6.6.6.6.6.6.6.6.6.6.6.6.6.6.6.",
"v.R.< 7 ^ s.A.^ R.b A.R.c o $.s.$.o.6.o.o.6.6.6.6.6.6.6.6.6.6.6.6.6.6.6.6.6.6.6.6.6.6.6.6.6.6.6.6.6.",
"<.p.^ < 2 u ^ R.s.(.m : : c D.J | o.o.o.6.6.6.6.6.6.6.6.6.6.6.6.6.6.6.6.6.6.6.6.6.6.6.6.6.6.6.6.6.6.",
"o.<.o.N.m ; ; 7 ; 0 O p R.m.6.s.6.6.6.6.6.6.6.6.6.6.6.6.6.6.6.6.6.6.6.6.6.6.6.6.6.6.6.6.6.6.6.6.6.6.",
"w.w.N.^ D.}.l h u d L.(.K 6.| <.6.6.6.6.6.6.6.6.6.6.6.6.6.6.6.6.6.6.6.6.6.6.6.6.6.6.6.6.6.6.6.6.6.6.",
"<.E o.s.E E ].s.N./.| o.| 6.w.6.6.6.+.6.6.6.6.6.6.6.6.6.6.6.6.6.6.6.6.6.6.6.6.6.6.6.6.6.6.6.6.6.6.6.",
"6.m.| 6.N.| o.6.o.N.| | m.6.o.| 6.+.+.6.6.6.6.6.6.6.6.6.6.6.6.6.6.6.6.6.6.6.6.6.6.6.6.6.6.6.6.6.6.6.",
"6.6.6.6.6.6.6.6.o.#.o.#.o.#.o.6.6.6.6.6.6.6.6.6.6.6.6.6.6.6.6.6.6.6.6.6.6.6.6.6.6.6.6.6.6.6.6.6.6.6.",
"4.4.4.4.4.4.4.4.#.#.#.#.#.4.4.4.6.6.6.6.6.6.6.6.6.6.6.6.6.6.6.6.6.6.6.6.6.6.6.6.6.6.6.6.6.6.6.6.6.6.",
"4.4.4.4.4.4.4.4.#.#.4.4.4.4.4.4.6.6.6.6.6.6.6.6.6.6.6.6.6.6.6.6.6.6.6.6.6.6.6.6.6.6.6.6.6.6.6.6.6.6.",
"4.4.4.4.4.4.4.4.4.4.4.4.4.4.4.4.6.6.6.6.6.6.6.6.6.6.6.6.6.6.6.6.6.6.6.6.6.6.6.6.6.6.6.6.6.6.6.6.6.6.",
"6.6.6.6.6.6.6.6.6.6.6.6.6.6.6.6.6.6.6.6.6.6.6.6.6.6.6.6.6.6.6.6.6.6.6.6.6.6.6.6.6.6.6.6.6.6.6.6.6.6.",
"6.6.6.6.6.6.6.6.6.6.6.6.6.6.6.6.6.6.6.6.6.6.6.6.6.6.6.6.6.6.6.6.6.6.6.6.6.6.6.6.6.6.6.6.6.6.6.6.6.6.",
"6.6.6.6.6.6.6.6.6.6.6.6.6.6.6.6.6.6.6.6.6.6.6.6.6.6.6.6.6.6.6.6.6.6.6.6.6.6.6.6.6.6.6.6.6.6.6.6.6.6.",
"6.6.6.6.6.6.6.6.6.6.6.6.6.6.| | 6.6.6.6.6.6.6.6.6.6.6.6.6.6.6.6.6.6.6.6.6.6.6.6.6.6.6.6.6.6.6.6.6.6.",
"6.6.6.6.6.6.6.6.6.6.6.6.6.6.6.6.6.6.6.6.6.6.6.6.6.6.6.6.6.6.6.6.6.6.6.6.6.6.6.6.6.6.6.6.6.6.6.6.6.6.",
"6.6.6.6.6.6.6.6.6.6.6.6.6.6.6.6.6.6.6.6.6.6.6.6.6.6.6.6.6.6.6.6.6.6.6.6.6.6.6.6.6.6.6.6.6.6.6.6.6.6.",
"6.6.6.6.6.6.6.6.6.6.6.6.6.6.6.6.6.6.6.6.6.6.6.6.6.6.6.6.6.6.6.6.6.6.6.6.6.6.6.6.6.6.6.6.6.6.6.6.6.6.",
"6.6.6.6.6.6.6.6.6.6.6.6.6.6.6.6.6.6.6.6.6.6.6.6.6.6.6.6.6.6.6.6.6.6.6.6.6.6.6.6.6.6.6.6.6.6.6.6.6.6.",
"6.6.6.6.6.6.6.6.6.6.6.6.6.6.6.6.6.6.6.6.6.6.6.6.6.6.6.6.6.6.6.6.6.6.6.6.6.6.6.6.6.6.6.6.6.6.6.6.6.6.",
"6.6.6.6.6.6.6.6.6.6.6.6.6.6.6.6.6.6.6.6.6.6.6.6.6.6.6.6.6.6.6.6.6.6.6.6.6.6.6.6.6.6.6.6.6.6.6.6.6.6.",
"6.6.6.6.6.6.6.6.6.6.6.6.6.6.6.6.6.6.6.6.6.6.6.6.6.6.6.6.6.6.6.6.6.6.6.6.6.6.6.6.6.6.6.6.6.6.6.6.6.6.",
"6.6.6.6.6.6.6.6.6.6.6.6.6.6.6.6.6.6.6.6.6.6.6.6.6.6.6.6.6.6.6.6.6.6.6.6.6.6.6.6.6.6.6.6.6.6.6.6.6.6.",
"6.6.6.6.6.6.6.6.6.6.6.6.6.6.6.6.6.6.6.6.6.6.6.6.6.6.6.6.6.6.6.6.6.6.6.6.6.6.6.6.6.6.6.6.6.6.6.6.6.6.",
"6.6.6.6.6.6.6.6.6.6.6.6.6.6.6.6.6.6.6.6.6.6.6.6.6.6.6.6.6.6.6.6.6.6.6.6.6.6.6.6.6.6.6.6.6.6.6.6.6.6.",
"6.6.6.6.6.6.6.6.6.6.6.6.6.6.6.6.6.6.6.6.6.6.6.6.6.6.6.6.6.6.6.6.6.6.6.6.6.6.6.6.6.6.6.6.6.6.6.6.6.6.",
"6.6.6.6.6.6.6.6.6.6.6.6.6.6.6.6.6.6.6.6.6.6.6.6.6.6.6.6.6.6.6.6.6.6.6.6.6.6.6.6.6.6.6.6.6.6.6.6.6.6.",
"6.6.6.6.6.6.6.6.6.6.6.6.6.6.6.6.6.6.6.6.6.6.6.6.6.6.6.6.6.6.6.6.6.6.6.6.6.6.6.6.6.6.6.6.6.6.6.6.6.6.",
"6.6.6.6.6.6.6.6.6.6.6.6.6.6.6.6.6.6.6.6.6.6.6.6.6.6.6.6.6.6.6.6.6.6.6.6.6.6.6.6.6.6.6.6.6.6.6.6.6.6.",
"6.6.6.6.6.6.6.6.6.6.6.6.6.6.6.6.6.6.6.6.6.6.6.6.6.6.6.6.6.6.6.6.6.6.6.6.6.6.6.6.6.6.6.6.6.6.6.6.6.6.",
"6.6.6.6.6.6.6.6.6.6.6.6.6.6.6.6.6.6.6.6.6.6.6.6.6.6.6.6.6.6.6.6.6.6.6.6.6.6.6.6.6.6.6.6.6.6.6.6.6.6.",
"6.6.6.6.6.6.6.6.6.6.6.6.6.6.6.6.6.6.6.6.6.6.6.6.6.6.6.6.6.6.6.6.6.6.6.6.6.6.6.6.6.6.6.6.6.6.6.6.6.6.",
"6.6.6.6.6.6.6.6.6.6.6.6.6.6.6.6.6.6.6.6.6.6.6.6.6.6.6.6.6.6.6.6.6.6.6.6.6.6.6.6.6.6.6.6.6.6.6.6.6.6.",
"6.6.6.6.6.6.6.6.6.6.6.6.6.6.6.6.6.6.6.6.6.6.6.6.6.6.6.6.6.6.6.6.6.6.6.6.6.6.6.6.6.6.6.6.6.6.6.6.6.6.",
"6.6.6.6.6.6.6.6.6.6.6.6.6.6.6.6.6.6.6.6.6.6.6.6.6.6.6.6.6.6.6.6.6.6.6.6.6.6.6.6.6.6.6.6.6.6.6.6.6.6.",
"6.6.6.6.6.6.6.6.6.6.6.6.6.6.6.6.6.6.6.6.6.6.6.6.6.6.6.6.6.6.6.6.6.6.6.6.6.6.6.6.6.6.6.6.6.6.6.6.6.6.",
"6.6.6.6.6.6.6.6.6.6.6.6.6.6.6.6.6.6.6.6.6.6.6.6.6.6.6.6.6.6.6.6.6.6.6.6.6.6.6.6.6.6.6.6.6.6.6.6.6.6.",
"6.6.6.6.6.6.6.6.6.6.6.6.6.6.6.6.6.6.6.6.6.6.6.6.6.6.6.6.6.6.6.6.6.6.6.6.6.6.6.6.6.6.6.6.6.6.6.6.6.6.",
"6.6.6.6.6.6.6.6.6.6.6.6.6.6.6.6.6.6.6.6.6.6.6.6.6.6.6.6.6.6.6.6.6.6.6.6.6.6.6.6.6.6.6.6.6.6.6.6.6.6.",
"6.6.6.6.6.6.6.6.6.6.6.6.6.6.6.6.6.6.6.6.6.6.6.6.6.6.6.6.6.6.6.6.6.6.6.6.6.6.6.6.6.6.6.6.6.6.6.6.6.6.",
"6.6.6.6.6.6.6.6.6.6.6.6.6.6.6.6.6.6.6.6.6.6.6.6.6.6.6.6.6.6.6.6.6.6.6.6.6.6.6.6.6.6.6.6.6.6.6.6.6.6."
};
