/* XPM */
static char *_9ddd45b3d544bd3db5f189d1eb5de98aw8xPpu24Y4yjAwV[] = {
/* columns rows colors chars-per-pixel */
"50 50 242 2 ",
"   c #0C0100",
".  c #130300",
"X  c #1A0300",
"o  c #140B00",
"O  c #1C0C00",
"+  c #1C1200",
"@  c #171100",
"#  c #2C0A00",
"$  c #340D01",
"%  c #231300",
"&  c #2C1504",
"*  c #2D1B03",
"=  c #281B08",
"-  c #361200",
";  c #341805",
":  c #361C08",
">  c #2C2403",
",  c #312303",
"<  c #362B0D",
"1  c #38280D",
"2  c #3A330D",
"3  c #3C2C11",
"4  c #362914",
"5  c #3D3216",
"6  c #373213",
"7  c #432E0A",
"8  c #43350F",
"9  c #442C13",
"0  c #423211",
"q  c #4A371B",
"w  c #452D21",
"e  c #4B3523",
"r  c #583E31",
"t  c #4E4318",
"y  c #584A1D",
"u  c #564726",
"i  c #5D532A",
"p  c #4C4231",
"a  c #584935",
"s  c #64552B",
"d  c #66573A",
"f  c #725E3B",
"g  c #7E6429",
"h  c #766A3B",
"j  c #676134",
"k  c #695C49",
"l  c #785E51",
"z  c #705746",
"x  c #6D6143",
"c  c #74644D",
"v  c #736C47",
"b  c #797448",
"n  c #756352",
"m  c #7F6E50",
"M  c #7A7157",
"N  c #846A2D",
"B  c #92773A",
"V  c #866931",
"C  c #886B5D",
"Z  c #857855",
"A  c #8D7357",
"S  c #8D7B63",
"D  c #89796A",
"F  c #957868",
"G  c #937569",
"H  c #9D8147",
"J  c #8D845B",
"K  c #93855D",
"L  c #948F5B",
"P  c #938455",
"I  c #A2874A",
"U  c #A78B51",
"Y  c #AF9458",
"T  c #B59B5E",
"R  c #968969",
"E  c #998874",
"W  c #9C9872",
"Q  c #948B6B",
"!  c #A29569",
"~  c #B79F61",
"^  c #A88C75",
"/  c #A69776",
"(  c #A58C6A",
")  c #BDA465",
"_  c #BCA567",
"`  c #ABA474",
"'  c #B7A97B",
"]  c #BDB47C",
"[  c #AEA26E",
"{  c #C48B7E",
"}  c #D18E78",
"|  c #E58A7A",
" . c #C3A76A",
".. c #CFB576",
"X. c #CFB278",
"o. c #D6BB7F",
"O. c #D2B57D",
"+. c #CBAE74",
"@. c #9D8E81",
"#. c #A39288",
"$. c #B29888",
"%. c #AA968B",
"&. c #ACA482",
"*. c #B8A888",
"=. c #BDB58A",
"-. c #B8A995",
";. c #C28F83",
":. c #CB9486",
">. c #D09D8A",
",. c #EA8781",
"<. c #F28C88",
"1. c #EB9C84",
"2. c #EB9687",
"3. c #F4948B",
"4. c #F49D8B",
"5. c #F8978D",
"6. c #FE9995",
"7. c #C7BB89",
"8. c #D6B981",
"9. c #D8BB83",
"0. c #CCA494",
"q. c #C5A999",
"w. c #D2AB98",
"e. c #CABE91",
"r. c #D3B998",
"t. c #CEA18E",
"y. c #EBA58B",
"u. c #F1A489",
"i. c #EBA996",
"p. c #FAA095",
"a. c #F4AA93",
"s. c #FAAB95",
"d. c #FCAC9B",
"f. c #F9A79D",
"g. c #F4BA9C",
"h. c #F9B59B",
"j. c #E9B29D",
"k. c #D8B8A6",
"l. c #CFBDA7",
"z. c #EDB6A0",
"x. c #FAB4A3",
"c. c #FCBDA4",
"v. c #FDBEAB",
"b. c #F8B8A8",
"n. c #F6B4A8",
"m. c #D5CB8D",
"M. c #DCD18B",
"N. c #D6C997",
"B. c #DCD89A",
"V. c #CEC58C",
"C. c #E5CA8D",
"Z. c #E9DC8D",
"A. c #EAD393",
"S. c #E5DC94",
"D. c #ECDC95",
"F. c #ECDD99",
"G. c #E6D899",
"H. c #F3DE94",
"J. c #F2DE9B",
"K. c #F8C09D",
"L. c #EDE395",
"P. c #EFE996",
"I. c #EDE29A",
"U. c #EFEC9D",
"Y. c #F3E496",
"T. c #F4E996",
"R. c #F5E49C",
"E. c #F9E59D",
"W. c #F5E99D",
"Q. c #F9EA9D",
"!. c #F9EA97",
"~. c #F6E996",
"^. c #DDD3A5",
"/. c #DEDBA6",
"(. c #DCC9B9",
"). c #DBC1A6",
"_. c #E9C5AA",
"`. c #F2C4A4",
"'. c #FFC1A6",
"]. c #F5C4AD",
"[. c #FCCAAD",
"{. c #FBC6AC",
"}. c #E4DCA4",
"|. c #EADDA3",
" X c #E4DCAA",
".X c #EADDA9",
"XX c #F6DCA2",
"oX c #E8C8B4",
"OX c #F3CBB3",
"+X c #FDCAB4",
"@X c #F3CCBA",
"#X c #FCCCBA",
"$X c #F6C5B4",
"%X c #EBD2BC",
"&X c #FED5BD",
"*X c #F9D3BA",
"=X c #EDE2A3",
"-X c #EEE3AB",
";X c #E8E3A9",
":X c #F6E3A1",
">X c #F7E5A0",
",X c #F4E4A2",
"<X c #F9E6A1",
"1X c #FAE4A3",
"2X c #F5EAA3",
"3X c #FBEAA4",
"4X c #F3E5AA",
"5X c #FDE4AB",
"6X c #F3EBAB",
"7X c #FEECAB",
"8X c #FDF1AB",
"9X c #F8F0A8",
"0X c #EDE3B3",
"qX c #F3E5B1",
"wX c #FDEDB4",
"eX c #FFEEBB",
"rX c #F8E7B1",
"tX c #F6F4B5",
"yX c #FEF3B3",
"uX c #FFFAB5",
"iX c #FEF4BB",
"pX c #FFFBBC",
"aX c #F3F1BC",
"sX c #ECD4C3",
"dX c #FCD6C2",
"fX c #FEDAC6",
"gX c #FDDBCA",
"hX c #F5D7C5",
"jX c #F6DED2",
"kX c #E9CFC0",
"lX c #FEE1CD",
"zX c #F9E6CA",
"xX c #FCF6C6",
"cX c #FFFBC3",
"vX c #FFFECC",
"bX c #F9F4C6",
"nX c #FDE4D3",
"mX c #FDE9D3",
"MX c #F9E9D9",
"NX c #FEF8D4",
"BX c #FDEDE3",
"VX c #FFF7E7",
/* pixels */
"Y.D.R.<X:X7XiX7X7X3XJ.<XE.D.Q.Y.E.E.E.E.R.R.R.R.R.R.R.R.R.Y.E.E.E.E.E.E.E.E.E.E.E.E.E.E.R.R.R.R.E.E.",
"<XD.8X3XA._ ~ T ) A.yXJ.R.R.Y.R.E.E.E.E.R.E.R.R.E.E.R.R.R.Y.E.E.E.E.E.E.R.E.E.E.E.E.E.E.R.R.R.R.E.E.",
"R.E.E.E...N g g V _ 3X3X<X<XR.R.>XE.E.E.E.E.E.E.E.E.E.E.E.E.E.E.E.E.R.R.R.R.R.E.R.R.E.E.E.E.E.E.E.E.",
"J.yXJ.I B o.C.8.8.H I J.8X<XD.>XE.E.E.E.E.E.E.E.E.E.E.E.E.E.E.E.E.E.R.R.R.R.R.R.R.R.R.R.E.E.E.E.E.E.",
":XC. .U +.iXwXwXeXO.U ) o.<X3XJ.E.E.E.R.R.R.E.E.E.E.E.E.E.E.Y.Y.E.E.R.R.R.R.R.R.R.R.E.E.E.R.E.E.E.E.",
"7X_ B X.wX5XXX5X5XwXo.B ~ 3X7XD.>XE.E.E.E.E.E.E.E.E.E.E.E.E.Y.Y.E.E.R.R.R.R.R.E.E.E.E.E.R.R.E.E.E.E.",
"7XC. .I  .5XeXiX5X8.Y Y A.<XR.E.>XE.E.E.R.R.R.E.R.R.E.E.E.E.Y.Y.E.E.E.E.R.E.E.E.E.E.E.E.R.R.R.E.E.E.",
"J.yXJ.T H X.8.9.O.H U J.yXJ.<XE.E.E.E.E.R.R.R.E.R.R.E.E.E.E.R.R.E.E.E.E.E.E.E.E.E.E.E.E.R.R.E.E.R.E.",
"E.1X3X:X..V N g N _ J.7XE.E.E.R.E.Y.E.E.E.E.R.R.R.R.E.E.E.R.Y.Y.E.E.R.R.R.R.E.E.E.E.E.E.R.R.R.R.R.R.",
"<XD.J.8XE._ ) ) _ A.yX>XD.R.<XR.R.R.E.E.E.R.R.R.E.E.E.E.R.R.Y.Y.E.E.E.E.R.R.E.E.R.E.E.E.R.R.R.R.R.R.",
"E.3XR.J.E.<X7X7X7X>XJ.E.Q.Y.Y.Y.R.R.R.R.E.E.R.R.E.E.E.E.E.E.Y.R.E.E.E.E.R.E.E.E.R.R.E.E.E.E.E.E.R.R.",
"D.Q.E.E.>X3X3X3X7XE.R.E.W.Y.Y.R.R.R.R.R.E.E.R.E.E.E.E.E.E.E.R.R.E.E.E.E.R.E.E.E.R.R.E.E.E.E.R.E.E.R.",
"W.R.D.Y.R.R.D.E.D.E.<XE.Y.Y.R.R.R.R.R.R.E.E.E.E.R.E.E.E.E.E.R.R.R.R.E.R.E.E.R.R.R.E.E.E.E.E.E.E.E.E.",
"Y.E.R.R.R.3XE.R.<XR.R.E.W.R.Y.R.R.R.R.R.E.E.E.E.R.E.E.E.E.E.R.R.R.R.E.R.E.E.E.R.R.R.E.E.E.E.E.E.E.E.",
"E.E.R.E.R.R.E.>XE.<XE.R.R.R.E.R.Y.Y.R.R.E.E.E.R.R.R.E.E.E.E.R.R.R.R.E.E.E.R.E.R.E.E.E.E.E.E.E.E.E.E.",
"Y.R.Y.2XE.R.<XR.R.E.E.E.E.R.R.R.R.R.R.R.E.E.E.R.R.R.E.E.E.E.E.E.E.E.E.E.E.E.E.E.E.R.R.R.R.R.R.R.E.E.",
"Y.Y.R.R.:X:XR.R.E.R.W.E.E.E.H.E.R.R.R.R.R.Y.Y.Y.Y.Y.Y.R.E.E.E.E.E.E.E.E.R.R.R.R.R.Y.R.R.R.R.R.R.R.R.",
"Y.Y.E.:X:X:XE.R.L.I.I.R.E.E.E.R.R.R.R.Y.R.E.Y.R.Y.Y.Y.R.E.E.>X>XE.R.E.E.E.R.R.Y.R.Y.Y.R.R.R.R.R.R.R.",
"R.E.E.:X:XE.R.R.Y.W.Y.R.R.J.E.E.E.<XE.R.J.R.R.E.E.E.E.E.E.E.E.E.E.E.R.R.R.I.I.W.Q.R.R.E.>XE.E.E.R.R.",
"E.E.E.:X:XE.R.R.Y.Y.L.R.>XR.E.R.D.R.<X<X>XR.E.E.>XE.>XE.E.R.R.R.Y.Y.Y.E.2XR.R.>XE.R.R.R.E.E.E.E.E.R.",
"R.R.E.E.E.E.R.R.Q.R.R.F.F.F.R.3XE.E.R.E.E.>XE.E.>X>XE.E.R.E.E.R.Y.!.W.R.F.F.F.F.R.E.E.Y.J.E.>XE.E.R.",
"Y.Y.E.E.E.E.E.R.R.F.7X7XwXyX:XE.3X<XE.R.R.R.:X:X:XE.E.E.>XE.E.E.!.Y.R.3XyXiXyX,XJ.E.E.Y.H.E.>XR.R.R.",
"P.P.Y.R.E.E.E.E.J.5XwXrXrXwX5XXXF.I.E.<X3X>X>X>XE.E.E.E.R.R.E.R.Y.D.R.7XqX4XqX4X3XE.E.Y.R.Y.R.,XR.R.",
"P.P.Y.R.R.E.E.E.,XwXN.P s h 7.wX7X2XR.R.E.E.E.E.E.E.E.R.R.Y.Y.Y.J.7XiXN.b i K N.7X>XR.E.!.Y.I.2XY.R.",
"W.L.W.Y.R.R.2XS.I.cX*., . * f ' 4X3XF.E.E.R.E.R.R.Q.Y.Y.Q.Y.Y.W.wXqXe.Z , . * / iX3XD.Y.!.Y.I.W.Y.R.",
"R.,XE.R.L.Q.L.I.=XcX'   d *.* 2 7.yX4XF.R.E.R.R.R.Y.Q.Q.Y.D.<XS.wX^.0 % *.d   ! eX5XJ.Q.Y.Y.W.L.Y.Y.",
":X:X:X3XR.Y.Y.I.9XpX` + D BXD 1 y ] yX4XA.R.R.R.Y.Z.R.Y.E.>XI.wXe.d < Q MXM O K eX,XR.3XR.Q.E.E.E.E.",
"5X1XJ.E.R.D.Q.S.B.iX=.o p MXBXk o ! cXwX=X3XY.Y.Q.R.Q.R.R.=X4XcXQ o k MXzXu . / xXG.:XR.R.E.H.R.E.E.",
"1X3X3XE.<XQ.W.S.=XvX&.. a jXVXn   W NXxX.X=X>XY.Y.E.I.3X4X.XxXNX/   n VXhXq . ( xX-X|.,XR.<XE.E.E.,X",
"J.D.J.F.R.I.M.8XpX=.x e F nXnXl   a Q R N.pX2XD.R.E.M.=XcXN.K R d . l nXhXF 9 u ' cXiX6XI.D.D.R.I.F.",
"9XW.2X2XU.2X=XpX Xu % $.hXdX&XF % o   + P .X4X>X2X3X4XiX0XJ %   X # G gX@X@X^ & y B.-XB.6X6XW.Y.Q.W.",
"W.8XpXpXcXvXvXe.q q E _.dX].i.{ F D E S < t .XpXR.,XiX-Xi , Z S C G ;.j.v.&XOX( u 8 u L cXcXpXpX2XW.",
">Xm.` R W W &.x * ^ mX&Xb.a.1.h.#XgXNXzXM < Z e.4X=XV.J q c %XlX$Xz.i.a.a.h.[.*X/ 9   1 E / / ` m.6X",
"wXP , o @ o . p -.sXdX+Xx.1.u.s.x.+X*X%XMXE . f iXpXj   R nX@X#X].i.1.1.1.s.[.&XhX$.w X . & o > L tX",
"iXh   p M c d ^ gXlX_.{.d.2.4.s.x.z._.).S a c *.qX6Xe.J a C k.$Xj.y.4.4.4.s.c.].gXgX$.l z n 4   h iX",
"bXv + -.VXzXfXOXOX$X+X+Xd.2.2.s.a.c.+X_.a % S ^.wX;XbX=.4 r @X&Xv.d.p.5.<.p.v.+XOX*X@XoXkXMX@.o b cX",
"NXv o #.VX%X#X+X+X{.#Xv.p.2.3.d.h.c.[.OXzXR O h iXpXb % E jXoX&Xv.d.f.6.5.6.v.+X+X$XOX*XoXBX%.  b cX",
"NXM   @.mXoX].+X+Xc.h.a.3.| 6.d.v.g.+X_.*.m s [ =X6XL q c q._.+Xh.s.p.6.<.3.f.x.v.[.[.OXoXMX#.  v aX",
"bXv   / mXOX[.'.'.h.u.u.| | 4.s.i.z.&X%X3 * ^.iX6X6X0X/ O e oX&Xh.u.4.3.,.,.2.4.h.K.[.`.OXmX@.  b tX",
"bXv   E mX_.`.[.c.g.y.y.| | 1.i.j.$XlX%X3 % N.cXG.|.xX*.X w %XdXg.y.1.2.,.| 2.1.a.g.`.`._.lXE . b pX",
"xXv O -.VXzXfXfXdX$X].b.f.i.n.+XgXnXsXD % > N.iXG.G.xX=.% & C oXfX#Xv.f.i.f.x.x.{.[.*X*XhXVX$.o v aX",
"xXv o D (.l.k.r.k.0.0.t.:.{ :.0.oX(.E + + t N.pXR.F.iXN.u O % F k.k.0.;.{ { :.>.t.w.w.q.q.(.D . v vX",
"aXb   = 4 = 1 : = & * ; $ $ - ; , > 6 j R ] =X3XD.R.7XrX' K s , 1 1 ; & # $ - - ; ; & & = 4 +   Z bX",
"tX` u 5 6 6 5 1 3 3 2 0 9 9 0 0 2 2 i N.tXcXI.Z.T.Q.Z.>XiXwXN.s < 3 5 0 7 7 7 7 0 3 1 5 5 5 5 i ' rX",
"U.6X;X X^./.;X.X X/.}.}..X.X.X}.}.B.=X6XI.L.W.Y.T.H.!.E.Y.D.6X}. X X X}.}.}.}.}.}. X X X X X/.}.=X2X",
"P.W.yXcXpXpXuXuXpXuXuXuXyXpXpXuXpXyX8XL.W.L.L.W.Y.R.Y.Z.Y.3XI.yXpXpXpXuXuXuXuXpXpXpXpXpXpXpXpXuX3XY.",
"T.W.:X|.S.S.D.Y.D.D.L.L.H.J.I.I.F.S.R.R.L.R.3XI.,XR.E.Q.H.R.>XF.F.F.I.I.I.I.I.I.I.D.S.I.F.S.D.F.E.R.",
"Y.R.R.R.2XQ.E.H.Y.Y.Y.Y.J.R.R.I.E.E.R.Y.Q.R.R.,X,XJ.<XR.E.Y.R.>XE.R.R.Y.Y.I.I.Y.Y.Y.I.I.W.E.E.E.E.3X",
"Y.Y.E.R.Y.Y.R.R.Y.R.E.E.E.E.E.R.E.E.E.E.E.E.E.E.E.E.R.R.R.R.,X,XE.E.E.R.R.R.Y.Y.R.Y.Y.Y.R.R.E.R.R.J.",
"R.Y.Y.Y.Y.Y.Y.W.R.E.R.R.E.E.E.E.R.E.>XE.E.E.E.E.E.E.E.R.R.R.,X,XE.E.E.E.R.R.R.Y.Y.Y.R.R.R.R.R.R.E.E."
};
