/* XPM */
static char *_0451a29cec74b50a0f4759d03bd45d3XyiTBB88SUtQ2b1i[] = {
/* columns rows colors chars-per-pixel */
"50 50 250 2 ",
"   c #040101",
".  c #0C0100",
"X  c #00030A",
"o  c #070808",
"O  c #130100",
"+  c #1B0200",
"@  c #150A03",
"#  c #1C0A00",
"$  c #140B0B",
"%  c #190C0C",
"&  c #1C120C",
"*  c #160C13",
"=  c #07131D",
"-  c #1B1517",
";  c #000A10",
":  c #220400",
">  c #230B00",
",  c #270E06",
"<  c #271507",
"1  c #331B04",
"2  c #3B1A03",
"3  c #3A1C0A",
"4  c #351706",
"5  c #261915",
"6  c #311C14",
"7  c #3B220C",
"8  c #372708",
"9  c #2A231A",
"0  c #3C2919",
"q  c #3E331C",
"w  c #2E2406",
"e  c #2B2826",
"r  c #3B2C25",
"t  c #3B2C2B",
"y  c #372925",
"u  c #3D3227",
"i  c #3B3838",
"p  c #25312F",
"a  c #1F2029",
"s  c #431906",
"d  c #471C13",
"f  c #43290E",
"g  c #482407",
"h  c #452514",
"j  c #4C2515",
"k  c #492B14",
"l  c #44251B",
"z  c #47281A",
"x  c #522B1B",
"c  c #552815",
"v  c #47341D",
"b  c #552D11",
"n  c #68331D",
"m  c #623010",
"M  c #4D2C23",
"N  c #432C2A",
"B  c #462C26",
"V  c #542C23",
"C  c #5A2E21",
"Z  c #443224",
"A  c #44342C",
"S  c #4B332C",
"D  c #483A28",
"F  c #5A3424",
"G  c #563729",
"H  c #4A3432",
"J  c #4B3D3A",
"K  c #463A38",
"L  c #583D37",
"P  c #633A2C",
"I  c #693928",
"U  c #743B28",
"Y  c #653D33",
"T  c #70372E",
"R  c #774A1A",
"E  c #6E4A1F",
"W  c #58482A",
"Q  c #5A5425",
"!  c #4D443D",
"~  c #47423F",
"^  c #54423D",
"/  c #5B423C",
"(  c #5C4537",
")  c #575735",
"_  c #6B4827",
"`  c #754728",
"'  c #60512F",
"]  c #694636",
"[  c #764937",
"{  c #68533A",
"}  c #77583A",
"|  c #7F5628",
" . c #7F6139",
".. c #6D663A",
"X. c #53481B",
"o. c #493E43",
"O. c #543E40",
"+. c #34454B",
"@. c #385766",
"#. c #4B4542",
"$. c #5A4442",
"%. c #574646",
"&. c #46555C",
"*. c #5B534D",
"=. c #684C43",
"-. c #6D5345",
";. c #795648",
":. c #765C53",
">. c #6E544C",
",. c #786846",
"<. c #78734E",
"1. c #756E54",
"2. c #777556",
"3. c #6F6B45",
"4. c #435C66",
"5. c #535D69",
"6. c #4B6973",
"7. c #85572D",
"8. c #845D3C",
"9. c #885A38",
"0. c #85492E",
"q. c #8C633C",
"w. c #85633C",
"e. c #946534",
"r. c #986638",
"t. c #956F34",
"y. c #A56C35",
"u. c #B46E32",
"i. c #AA763B",
"p. c #B97739",
"a. c #AC702D",
"s. c #98591B",
"d. c #C57B39",
"f. c #C1742C",
"g. c #885C47",
"h. c #895C49",
"j. c #876547",
"k. c #966846",
"l. c #837548",
"z. c #99754A",
"x. c #866B57",
"c. c #987857",
"v. c #916E53",
"b. c #A26F45",
"n. c #A97847",
"m. c #B77C46",
"M. c #A67D58",
"N. c #827A66",
"B. c #907266",
"V. c #A77D65",
"C. c #C57D44",
"Z. c #92813C",
"A. c #C7833D",
"S. c #9C8A51",
"D. c #BA8248",
"F. c #A7934E",
"G. c #AA8458",
"H. c #B78958",
"J. c #AD9859",
"K. c #B29E5B",
"L. c #A8864B",
"P. c #B7A15D",
"I. c #8C8766",
"U. c #958764",
"Y. c #978E75",
"T. c #959377",
"R. c #93916B",
"E. c #A9896B",
"W. c #B88A65",
"Q. c #A89C6A",
"!. c #BA956A",
"~. c #B98C72",
"^. c #BB9375",
"/. c #AD8975",
"(. c #BAA667",
"). c #B2A87B",
"_. c #C78746",
"`. c #C68A56",
"'. c #D08C50",
"]. c #C59569",
"[. c #C3906F",
"{. c #C4AD6B",
"}. c #C7B16D",
"|. c #CBB573",
" X c #D3C47F",
".X c #597686",
"XX c #688896",
"oX c #7392A5",
"OX c #7DABC3",
"+X c #AAA484",
"@X c #BCA488",
"#X c #9E9CA1",
"$X c #AEACAF",
"%X c #9FA3A1",
"&X c #C8B88B",
"*X c #CEB693",
"=X c #D4C183",
"-X c #D6C796",
";X c #E8D48C",
":X c #EAD593",
">X c #EDDC94",
",X c #EBDC9C",
"<X c #E5DA9B",
"1X c #F2DD95",
"2X c #F3DE9A",
"3X c #F0D795",
"4X c #E1CD96",
"5X c #EDE295",
"6X c #EDE29B",
"7X c #F4E396",
"8X c #FAE395",
"9X c #F4E49C",
"0X c #F9E49C",
"qX c #F4E99B",
"wX c #FAE99D",
"eX c #F6EA94",
"rX c #F3E48B",
"tX c #DCCEA8",
"yX c #EBDDA4",
"uX c #E6D6A6",
"iX c #F2DDA3",
"pX c #EDE3A3",
"aX c #EFE8A2",
"sX c #F4E4A2",
"dX c #FAE5A2",
"fX c #F6EAA3",
"gX c #FDEBA4",
"hX c #FDEDAB",
"jX c #F4E8AD",
"kX c #FFF2AA",
"lX c #F5ECB3",
"zX c #FDEEB3",
"xX c #FCECBB",
"cX c #F6E4B3",
"vX c #FEF2B4",
"bX c #FDF4BC",
"nX c #FEF9BE",
"mX c #FFFAB4",
"MX c #ECE1B4",
"NX c #8FB9C9",
"BX c #AEC5D1",
"VX c #9AC8E0",
"CX c #FCEEC2",
"ZX c #F9ECC6",
"AX c #FEF5C2",
"SX c #FEFAC4",
"DX c #FFF6C9",
"FX c #FFFBCC",
"GX c #FFFAD4",
"HX c #CFD3E0",
/* pixels */
"8X8X8X0XsXsXcXvXzXdXdX1X7X7XqX5XeXrXeXwX1X0XdX9XqXqX9X9XqX0X0X9XqX9XqX9X7XwX7X0X0X0X9X9X7X7X9X9XdXsX",
"8X;X0X9X2XvX|.!.J.}.1XgX0X7X5XqX7XeX7XqX9X9X9XdXqXqX9X7X9XqXdXqXqX9X9X5XdX>X7X8X9X9X9X9X7X7X7XqXdXsX",
"dX9X9XgX;XZ.{.(.|.|.L.}.:XgX9XgX2XhX9X9X9XdXdXqXqX7X7X7X7X7XqX7XqXqX>XfX9XgXdXqXqXqX7X7X7X7X7X7XqXdX",
"sXdX:XF.F.;X9XkXgXgX:X{.J.|.dXdX2XsXsXsXsX6X6XfX9X9X9X9X9X9X6X9XqX9XqX9X9X9X9XqX9X9X9X9X7X7X7X7XqXqX",
"iXzXS. XqXkX7X1X2X1XhXdX:XF.;XdX1X7XfX6X6X6XaX5X9X9X6X9X6X6XpXpX,X5XfX9XsXgXdX9X9X9X9X9X7X7X7X7X7X7X",
"cX4XK.6XgX;X7X0XdX2XdX2XhX|.(.0X8XwX6XpXlXnXnXAXAXbXbXAXAXAXAXDXSXbXyXsXsX2XqX0XqXqX9X9X9X7X7X7X7X7X",
"zX(.}.kX>X9X1X0XdXdX2XhXdX9XF.;X9X,XlXFX<.0 D q v v v v Z Z A D 8 l.FXyX2XgX>X0X9X9X9X9XqX9X9X9X7X7X",
"vX{.(.hX2XqXgX2XdX2XdX9X,X>Xt.kX<XjX&X-XD . O O O . O O O O + + O { -XuXsXsXqX9X9X9X9X9XqXqX9X9X9X7X",
"gXP.|.kX;XdX2XgXdX2X9XdXsXsXS.jXxXxXO O < G H H H y O B >.-.=.Y ;.h O tXFX<XhX9XgX9X1XdX0X9X9X9X7X7X",
"gX;XF.2XhXdX1X2X9XgXdXsXzX(.&XCXE.W 1 f z V M B S N O B =.P I [ ] P h v c.DXcXpX,XdX0X8X>X7XwX7X7X7X",
"gX0X(.{.3XgXgX1XwX;XhXsX4X&X&Xf 4 , F x c j F x M B O M ;.I n ` n [ ;.x 7 1 8 MXAX<XdXgX7XwX1X9X9X7X",
"2X9X2XP.P.}.2XgXgXmX=X(.l.U./.+ l Y j j m b c j M l + M ] ` U U 0.n I ;.L + 1 U.*XjXsX>X7X0X0XdXqXqX",
"9XgX9XgX;XK.K.P.J.J.Q.uXc.O : V V d I c c g s x z l O z Y T U n U ` [ P Y h.L O ' FXlXhX9X>XhX>XdXqX",
"9X9XqX9XdXhX=X(.=X-XcX{ x z h j V C s j _ h.;.>.>.L O L B.;.h.h.g.[ I [ T C [ F k W X.lXvX<X9X2XqX9X",
"6XqX9X9XqXsXzXxXuX*X@XO 4 V x P c s ] P ] =.:.=.>.H O Z >.] =.-.-.} [ T U U n g.x O w ).-XnXdXdX9X9X",
"qXqXqX>XdXsX,XxXU.O > l V V j x F [ G G 6 + + , , < < , # # > O O < P [ U 0.` U T ;.W . ..lXyXdX9X9X",
"6X6X7X7X9XdXiXCXY.. , M V x c j -.:.O . . % t A A Z Z Z 0 A J $ . O O -.;.P n ` I ] / . 3.FXsXdXdXqX",
"9X9X7X7X9XdXiXxXY.. + G V j x ;.B < . . 5 t r u r Z 0 Z A r y y y 5 . @ 0 x.g.I ` Y =.. ,.SX4X6XfXqX",
"sX9X7X7X9XdX9XbXI.. > l x F F -.6 . % % 6 H N S N S B S H N S B H 6 ,   & *.] [ [ Y / . ,.SX>XgXqXqX",
"sX9X9X9X9XdX9XbXR.  # l { x.-.O O . y t r H L $.$.L / $.L / =.S r H y $     + ;.h.{ / O <.bX5X5X9X9X",
"sXsX9X9X9XqX7XbXI.  & =.D < 6 O $ 9 i J K J %.$.$.$.$.%.$.$.^ $.J K i e - $ O < M :.*.. <.SX6X5XqXdX",
"dX9X9X9X9X9X>XbXT.  @ & 5 0 6 O . . O . . O O + + + O O + O . + O + O . @ . O 6 6 O -   1.DXpX5XdXsX",
"qXqX9X0XqX9X,XnXT.  * * 5 t 5 6 3 1 3 3 3 3 2 s s 2 2 2 2 7 7 1 7 4 4 7 7 1 h 6 5 % -   1.DXyX9XqX9X",
"9X9X8X0X9X9X,XAXI.  $ %.a . < x.j.8.j.8.j.8.9.9.r.9.q.q.q.q.w. .j.j.w.j.8.j.x.O @ #.i   1.FXpX9X9XqX",
"7X7X0X8X9XsXpXnXR.    .   . > } k.G.n.n.M.n.n.n.m.m.m.i.n.n.t.z.c.M.H.L.e.| } # . . .   3.bXsX9XdXqX",
"7X7X0X9XdXsXsXlXQ.w v u 5 . , ,.q.G.9.q.w.} j.e.b.m.`.y.r.r. .} W j.z.n.r.7.8.+ @ A q w l.SX:XwX9X9X",
"9X7X0XqXsXpXsXsXfXlXbXGX2.O 3 E.w.F : . e i . + b 7.G.7.` k . e +.e . f e.].~.+ -.GXCXnXvXgX1X8X9XqX",
"qX7X9X9XsXpXdX9XqX5XyXAX2.. 1 E.v.{ O o XXoXX . ] 8.M.q.j./ X .XBX6.  { k.W.E.+ W ZXuXaX>X>XwX1XgXgX",
"9XqX9XdXsX9XdX7X5X6XjXFXN.. 1 ^.v.' . X XXNX=   G k.].9.8./ X oXVX.XX =.j.[.~.+ { GXbXaXfX6X0X1X9X9X",
"9X9XdXdXsX6X7X7X6XjXuX+X*.. 1 E.q._ #   4.6.; . _ 7.].9.9.G   5.XX@.  ( h.W.V.+ D +XQ.pXpXpXdXgX9X9X",
"7X9XdX9X9X5X>XdXxXGXtX.   . > E.` m : O     . O g R H.R m c O .   . O s 0.m.G.> . . @ ZXCXjXfX7XqXqX",
"qX9XdX9X7XqX6XvX).8 D % * . < E.n.b.k.j.x.1.j.j.k.b.H.n.b.b.j.x.x.j.k.b.i.D.G.> @ < < q I.bX6X>XqX7X",
"9XdX9XqX7XdXjXFXT..   5 -   w E.W.H.W.!.!.^.[.W.H.H.n.H.`.H.[.^.~.W.].W.H.].^.: # < <   3.AXpX9X7X7X",
"9XqX9X9XqX9XpXFX+X  $ *   . < ' _ _ E _ ` ` ` ` _ _ _ _ E E ` _ ` ` _ _ ` [ ] > @ @ -   <.SX<XdXqX7X",
"7X9X9X9X9X9X<XFXY.  . . $ o . O O O O . . . . . . . . O . . . . . O O O + O O . . . -   1.SXsX9XqX7X",
"7X9XsXsXqXqX<XSXY.  5 K o.K J ^ O.^ ^ ! ! ! ! ! #.o.o.o.! ^ ! ! ! ! ! %.$.$.%.%.~ #.K . <.SX<X9X9X7X",
"7X9X9XsXqXdX,XbXI.. . & e J H N t N N N N t r u u r t t N Z N Z u u r r A N t t t e 9 . ..nX9X7X9X9X",
"7XqX9X9X9X9X6XlX&X3.<.N.u . + l l l h h z h f f f f z z h f h f f 8 k h f z A . 9 N.1.,.).hX1X7X9X9X",
"7XwX5XqX9X9X9XaXjXnXbXGXI.O < v.k.k.r.e.r.r.e.e.e.y.e.r.r.e.r.e.r.e.r.r.r.k.c.O { GXDXSXhX6XdX7X9X9X",
"9XwX7XwX9X9XfX6X6X5X<XbX2.. , z.n.p.u.u.p.p.a.a.p.p.a.u.u.a.i.y.a.p.m.p.p.y.z.+ ' CXyX,X6XqX9X9XsXsX",
"9X9X7X7X9XqX9X9X7XqX5XbX2.. 1 G.D.d.d.f.d.d.p.A._.A.p.d.p.p.p.p.p.C.'.d.f._.G.+ Q DXyX9X7X7X9X9XsXsX",
"9X9X7X7X9XqX9X9X7X7X5XbX2.. 1 W.m._._.'._.`.].D._._._.'._.C.`.`.`.`.'.C.d._.H.+ Q SXyX9X9X0X0X0XsXsX",
"9X9XqXqXqXqX9X7X0X9X>XSX2.. 3 ~.D.i.z.M.M.c.c.c.n.i.p.a.p.p.n.M.c.c.k.m.p.D.H.@ Q SX,X9X0X8X0X0XqXsX",
"9X9XqXqXqXqX9X7X0X9X,XSX2.. 4 ~.q.g + . . . . O 7 R _._.'.7.: . . O , k.`.`.J.O Q SX6XqX0X8X8X8XqXsX",
"9XqXqXqX9X9X9X7X0X0XyXAX2.. 4 /.h.( *.5.4.&.&.K =.7.C.d.`.7.  +.&.p O v.D.m.G.O Q SX6X7X0X8X8X7XqXqX",
"sX9X7X7X9X9X9X7X0X0X6XAX2.. 2 E.;.B.HXHXBX$X#X$Xx.g.m.u.m.8.o XXNX4.  v.m.i.G.+ Q SX,X8X8X8X7X7XqXqX",
"sXqX7X7X9X9X9X7X8X8X>XnX2.. 2 ~.g.h A y Y.*X] [ m ` C.A.`.8.  6.OX@.  v.`._.H.+ ' DX,X9X9X9XsXsXqXqX",
"sXqX7X7X9X9X9X7X8X8X>XnX2.  2 ^.V.;.>./ @X*X9.k.h.k.`.`.].,.  4.oX+.  B.].`.~.: W DXiX9XqXsXpXaXqXqX",
"sX9X9X9X9X9X9X7X8X9X5XnX2.  < S S H J ! H G G G G G F k v 0 o = a = o r G G ( . W AX:X0X9X9X9X9XqX7X",
"9X9X9X9XqXqX9X7XqX0X6XbX2.  . O . . . . . O O O O . . . . @   X X X   . . . &   ) FX>X0X9X9X9X9X7X7X"
};
