/* XPM */
static char *_f0aa8844fe04c1ca60f8979f8e3fd78yak58kW1jEJDECHy[] = {
/* columns rows colors chars-per-pixel */
"50 50 245 2 ",
"   c #040200",
".  c #0C0100",
"X  c #0E0A02",
"o  c #0C0A0C",
"O  c #090608",
"+  c #130100",
"@  c #1B0200",
"#  c #150C04",
"$  c #081908",
"%  c #1A1401",
"&  c #19140B",
"*  c #161714",
"=  c #2A0300",
"-  c #270700",
";  c #370502",
":  c #291704",
">  c #361904",
",  c #371907",
"<  c #261913",
"1  c #381613",
"2  c #052C18",
"3  c #122C1B",
"4  c #2C2608",
"5  c #36270B",
"6  c #352817",
"7  c #38311D",
"8  c #2B2314",
"9  c #073725",
"0  c #38352B",
"q  c #2B2826",
"w  c #401D0A",
"e  c #45351A",
"r  c #513111",
"t  c #573B23",
"y  c #47392C",
"u  c #77363C",
"i  c #70312C",
"p  c #551E24",
"a  c #0A4032",
"s  c #6B401E",
"d  c #574427",
"f  c #494433",
"g  c #574632",
"h  c #595434",
"j  c #764B29",
"k  c #695338",
"l  c #795938",
"z  c #6C4D2E",
"x  c #75683A",
"c  c #5F5D46",
"v  c #785941",
"b  c #6F5045",
"n  c #7A654B",
"m  c #7C7453",
"M  c #797459",
"N  c #756E4D",
"B  c #736F65",
"V  c #5C7B73",
"C  c #983638",
"Z  c #D43B2B",
"A  c #895832",
"S  c #89512D",
"D  c #93713B",
"F  c #A2763E",
"G  c #BB7D3A",
"H  c #E24433",
"J  c #C57F3C",
"K  c #D4443B",
"L  c #8F4D4A",
"P  c #B65954",
"I  c #B75246",
"U  c #80784C",
"Y  c #987349",
"T  c #897559",
"R  c #967559",
"E  c #916C4D",
"W  c #AA7B49",
"Q  c #B97D48",
"!  c #A57656",
"~  c #A05F63",
"^  c #967962",
"/  c #867B72",
"(  c #836F6A",
")  c #B5726F",
"_  c #CF544C",
"`  c #E6584C",
"'  c #C57D41",
"]  c #ED7366",
"[  c #498978",
"{  c #BD823B",
"}  c #B48139",
"|  c #C4833D",
" . c #C6883B",
".. c #988652",
"X. c #A48B4A",
"o. c #BB8343",
"O. c #BB844C",
"+. c #B78747",
"@. c #A5914E",
"#. c #B78958",
"$. c #B59857",
"%. c #A78C5A",
"&. c #B5A15D",
"*. c #948C6E",
"=. c #A98768",
"-. c #B78B65",
";. c #BE926C",
":. c #B69268",
">. c #AB8D71",
",. c #B88E73",
"<. c #AB947C",
"1. c #B99877",
"2. c #AA9B68",
"3. c #BBA765",
"4. c #B6A679",
"5. c #C38344",
"6. c #C2854B",
"7. c #CA8B4E",
"8. c #C88948",
"9. c #C7924B",
"0. c #C48B52",
"q. c #C98C56",
"w. c #C6945A",
"e. c #D28C4B",
"r. c #C59463",
"t. c #C79769",
"y. c #C69A71",
"u. c #C58F62",
"i. c #C6B26E",
"p. c #C8A377",
"a. c #C9B675",
"s. c #D2B679",
"d. c #D5C27D",
"f. c #3DB999",
"g. c #46AD92",
"h. c #48B99A",
"j. c #57B899",
"k. c #51AE91",
"l. c #65AC96",
"z. c #68B69C",
"x. c #6DAB8B",
"c. c #4CB8A4",
"v. c #73B5A6",
"b. c #6FB3A5",
"n. c #3AC09D",
"m. c #4FC4A4",
"M. c #50C29E",
"N. c #97978C",
"B. c #9A9C9C",
"V. c #999A97",
"C. c #809D98",
"Z. c #A6988B",
"A. c #B79781",
"S. c #A29C9C",
"D. c #A69B94",
"F. c #B6908E",
"G. c #99A298",
"H. c #80AC9D",
"J. c #AEAB85",
"K. c #B4A987",
"L. c #A2A398",
"P. c #B8A497",
"I. c #BFB99D",
"U. c #B6B283",
"Y. c #9D9FA0",
"T. c #A39DA2",
"R. c #8AAAA4",
"E. c #99A3A3",
"W. c #97B8B2",
"Q. c #A2A2A3",
"!. c #A7A9A7",
"~. c #BAB5AC",
"^. c #D29886",
"/. c #C6B989",
"(. c #C8BB97",
"). c #CCA68E",
"_. c #CCACA3",
"`. c #EDAFA6",
"'. c #BFC09E",
"]. c #D8C687",
"[. c #D3C395",
"{. c #CBC399",
"}. c #E2CE8B",
"|. c #E7D38D",
" X c #EDDB95",
".X c #ECDD9B",
"XX c #E8D995",
"oX c #F3DE95",
"OX c #F2DE9A",
"+X c #F0D699",
"@X c #E3C89D",
"#X c #EEE295",
"$X c #EDE39B",
"%X c #EFE89A",
"&X c #F4E496",
"*X c #F9E496",
"=X c #F4E49C",
"-X c #F9E49C",
";X c #F5E99D",
":X c #FAE99D",
">X c #F6EA95",
",X c #EDE18F",
"<X c #CAC4A2",
"1X c #D4C5A5",
"2X c #DED5A2",
"3X c #C5C4B2",
"4X c #E9DCA6",
"5X c #F2DFA1",
"6X c #E8DDB9",
"7X c #EDE4A3",
"8X c #ECE3A9",
"9X c #F5E4A2",
"0X c #FAE5A3",
"qX c #F5EAA4",
"wX c #FCEAA3",
"eX c #F2E4AB",
"rX c #F4EAAB",
"tX c #FEECAB",
"yX c #FFF1AD",
"uX c #F6F2AB",
"iX c #EDE5B8",
"pX c #FDECB3",
"aX c #F5EDBA",
"sX c #FDEDBA",
"dX c #F3E7B5",
"fX c #FDF3B3",
"gX c #FDF3BD",
"hX c #FCF7BA",
"jX c #BFEDE0",
"kX c #AAD7C3",
"lX c #D6D3C4",
"zX c #E1D6C0",
"xX c #F7EBC2",
"cX c #FEF4C4",
"vX c #FFFCCB",
"bX c #FDF7C5",
"nX c #FFFBDA",
"mX c #FFF9D3",
"MX c #E9E4CA",
"NX c #FFFDE4",
"BX c #FEF6E9",
"VX c #FFFCF3",
"CX c #FFF7F2",
"ZX c #E8FFF3",
"AX c #DDF8E9",
/* pixels */
"=XwX.X0X X0X0XyXfX0X0X=XOXoX=X-X9X=X0X&X&X:X&X=X=XqX9X7X9X=X&X=X=X=X=X=X=X=X&X#X=X=X=X=X=X=X9X=X=X=X",
"9XXX9X=X=XyXa.3.$.a.OX0X=XtX-X XwX X=X0X#X=XwX=X=X=X9X9X=X=X=X&X-X0X=X=X=X#X;X:X=X=X=X=X=X=X9X=X=X=X",
"9X=X0X0X|.D i.3.i.3.@.i.|.=XwXwX X:X=X=XqX=X=X=X-X&X-X:X=X=X9X=X=X&X&X=X=X=X=X=X=X=X=X=X=X=X=X=X=X=X",
"=X0XOXX.@.}.0XyXtXyX|.i.X.s.=XoX*X:XOX$XqX9X=X=X*X*X&X:X=X9X=X=X;X;X;X&X#X=X0XOX=X=X=X&X=X=X=X=X=X=X",
"9XtXX.].0XtX=XOXOX XtX-X XX.}.yXoXoX=XqXqX$X#X=X&X=X#X=X;X:X*X:X#X#X;X=X=X=X0X9X9X=X=X&X&X=X=X=X=X=X",
"0X}.$.OXwX XOX-X0X0X=X|.wXs.&.=XoX-X=X$X$X$X=X=X:X=XqX$XqX XOX&X=X$X#X&X:X=X5X9X9X=X=X&X&X&X=X=X=X=X",
"tX3.a.yX X0X=X-X=XoX=XtXtXXX@.OX0X0XrXfXaXfXfXXX=X#XqXrXrXeXpXfXrXuX$X#X=X=XOX0X9X=X=X&X&X&X=X=X=X=X",
"fX3.3.tX=X-XwXoX-X-X-X=X XtXD pX.XeX(.(.<XU.[.tXwX=X7XeX/./.(././.8XrX$X=X:X=X=X=X=X=X=X&X=X=X=X=X=X",
"0X3.a.tX|.0X=XwX-X=XOX=XtX.X..eX8X4X. . . . d sX=XoX9XeX: . . . 4 aXdX X=X&X-X=X=X=X;X;X&X=X=X=X=X=X",
"tX}.@.9XwX0X-X=X=XtXOXOXpX3./.cXbX6X# . @ + k mXpXpXcXiX5 + + + t iX4XeX9X=X=X:X;X=X$X=X9X=X=X=X=X=X",
"wXwX&.3.OXwX0X=X:X].yXtX].4./.5 4 6 T =.T R z e 5 6 8 7 b R R R k e 5 [.rX$X=X#X X=X=X0X0XOX=X9X=X=X",
"OX=XOX&.&.i.OXwXtXyX].2.%.[.1X+ + @ >.-.#.p.l + .   . + =.y.r.p.R @ + [.aX8X7X=XwX0X=XOX9X9X=X=X=X=X",
"=XwX=XtX|.$.&.3.@.3.X.a.cXnX1X+ @ = W O.} #.l + . . . @ Y #.Q 0.Y + @ (.nXxXdX7X=X X=X-X=X=X=X=X=X=X",
"=X=X=X=XwXtXd.a.i.a.tXbX..e g n E A w.5.G w.Y l n T E S w.8.' 6.! l n g f e U.4X$X X=XwX=X=X#X=X=X=X",
":XoX=XwXOXOXfXwXyXtX7XsXU . : <.y.O.Q 0.0.r.y.y.p.-.w.7.8.G q.w.;.).P.: .   J.vX9XtX X-X=X0X=X=X=X=X",
"=X=X-X=X9X9X X=X=X9X7XgXT + : >.W 7.6.q.A j l l S O.5.e.J q.W l l k b < .   M *.4.rXOX0X=X=X=X=X=X=X",
"=X=X=X=X9X9X=X=X:X=X.XgXM . , 1.#.o.O.t.w + . . @ O.7.8.6.u.t . . .       O     h cX.X=X*X*X=X=X=X=X",
"=X=X=X=X9X9X=X=X&X&X$XcXM . > ;.O.{ o.-.6   O . - #.6.8.Q t.t     o O           c nXaXOX:XoX:X0X=X=X",
"=X=X=X=X=X=X=X=X&X&X$XbXM . > ;.5.e.5.:.k f q   @ #.5.5.8.r.n 0 0   . < 8 6 %   f I.K.dX=X-X0X.X=X=X",
"=X=X=X=X=X=X=X=X;X=X$XcXM . , t.5.|  .F aXNX~.. : #.7.G e.F 1XNXMX. @ ^ A.A.g : &   . iX5X0X9X=X=X=X",
"=X=X=X=X=X=X=X=X=X=X$XgXM . > ;.5.8.| +.4XNXP.+ = O.6.7.o.W @XnX1X+ - ! -.:.r : & X % 6XdX9X$X9X=X=X",
"=X=X=X=X=X=X=X;X=X=X$XgXm . > ;.o.| 8.o.-.4.>.E W O.o.5.7.o.y.p.1.Y D O.O.t.t : <   # 6XeX9X0X=X=X&X",
"=X=X=X=X=X=X$X$X=X=X$XgXm + , ;.6.| 8.0.#.#.r.0.9.| | | 8.7.6.W +.w.8.7.6.r.t : *   # iXeX=X X:X&X>X",
"=X=X=X=X=X=X=X$X=X=X$XgXm . , ,.6.5.5.q.j r S 0.G  .| | 8.' 5.7.o.} G 5.Q r.t : *   % 6X9X;X=X&X>X>X",
"=X=X=X=X=X=X=X=X=X9X.XgXm . , ,.O.7.Q t.r @ r r.o.{ 5.| J J 8.|  . .8.5.O.;.t < &   % dX9X&X:X&X&X>X",
"=X=X=X=X=X=X=X=X0XOX9XhXm . , ^.O.5.+.#.w @ t p.t.w.r.0.7.|  . . . .5.q.y.1.g 8 #   % 4X=X&X=X=X&X&X",
"=X=X=X=X=X=X=X=X=X0X.XfXN . 5 >.O.8.9.$.j t t d k k l j W O.o.8.{ G O.A z b 8 X 7 N x XX=X-X=X=X=X=X",
"=X=X=X=X=X=X=X=X0X5X=XhXN . : 1.#.+.} +.#.p.v + + + + @ Y w.{ { o.r.y.= @ + .   h nXeX9X=X&X=X0X=X=X",
"=X=X=X=X&X&X=X=X0X9X XfXU # e T =.W 0.8.+.#.A - - : : > F 9. . .+.Y R t : : 4 % k cX7X$XwX=X9X9X=X=X",
"=X=X=X=X&X&X&X=X0XOX=XqXiXMXI.@ @ ; W O.O.#.-.-.,.>.1.%.#.o.{ o.Y @ @ P.BXMXxXiX4XfX$X$X=X=X0X=X=X=X",
"=X=X=X&X&X&X&X=X+XtX=X$XaXnXzX. + - ,.#.-.#.#.#.#.%.=.-.-.-.-.-.E . . zXNXxXdX4XyX.X=XqX#X=X-X-X=X=X",
"=X=X=X=X&X&X&X=X0XOXoXfX*.4 7 . . # Z.<.1.1.>.:.:.1.<.A.A.A.,.A.<.B *.f 7 5 /.tX=X=X;X#X;X&X=X-X=X=X",
"=X=X9X=X=X=X=X=X0X.X XhXN     o o o S.S.L.L.D.L.N.D.S.D.D.D.D.L.L.L.!.*   . K.sX=X=X;X=X=X=X=X9X=X=X",
"9X9X=X=X=X=X=X=X.XfXqXvXm .     . + V.T.Y.B.E.B.B.E.Y.B.S.S.V.G.B.B.Q.* O . K.sX=X&X=X=X&X=X=X9X=X=X",
"=X-X=X=X&X=X=X=XrX8Xx z z l l l l b Z.D.Q.E.Q.V.L.G.G.B.B.S.S.T.S.B.Q.*     J.hX=X&X-X&X&X&X=X=X=X=X",
"=X=X=X=X&X=X;XqXrXdX: + s p.w.w.#.1.).P.Q.B.B.!.G.G.G.B.Y.T.T.T.S.L.!.*     J.hX=X&X*X*X&X&X=X=X=X=X",
"=X=X=X-X*X&X=X$X8XvX5 @ s #.| { #.1.n B N.!.V.V.V.G.G.B.Y.T.T.T.B.G.!.*     J.hX$X=X-X-X*X&X=X=X=X=X",
"=X=X=X-X*X&X&X$X8XcX6 + j t.5.5.W ..+   B !.V.G.G.G.G.E.E.E.G.E.E.E.E.*     J.gX7X=X9X-X*X=X=X=X=X=X",
"%X=X=X=X-X=X=X$X7XaX5 . d ).W r.1.>.#   V W.x.R.R.R.R.R.R.R.v.R.R.R.E.* . . J.cX7X9X9X9X-X=X=X=X=X&X",
"$X=X=X=X-X-X:X;X7X8Xd : k ^ R R ^ N 3 9 [ v.v.v.b.v.b.b.b.z.z.z.l.v.W.3 . . J.sX7X7XeX9X=X=X=X=X=X=X",
"=X=X9X9X9X=X=X=XXXfX2XvXT . + +   $ x.k.h.h.c.c.c.f.n.f.h.j.h.M.h.g.v.2 $   4.gX4X0XeX5X=X=X$X;X=X=X",
"=X=X9X9X9X=X=X=X$X$X$XhXN . % .   $ x.x.x.l.j.c.g.m.m.M.z.l.k.g.m.j.l.2     2.gXOX9X9X=X=X&X#X$X&X&X",
"9X9X9X=X=X=X=X=XwX=X>X;X2X(.<.. @ - R E ! R Z.AXjXa 9 3 B ( ~.ZXkX2 3 N.3XJ.4XpX=X&X=X=X=X&X=X;X=X=X",
"9X9X=X=X=X=X=X=X X=X>X,XdXmX1X+ @ ; P _ ` _ ^.BXVX    . b ~ `.CXlX    3XBXnXcX.X=X&X&X=X&X&X&X&X=X=X",
"9X9X=X=X=X=X=X=XwXoX*X=X.XdX<X. @ ; I _ H Z ] `._./ B / k i ) )._./ N./ *.M {.rX;X>X=X-X&X&X=X=X=X=X",
"9X=X=X&X=X=X9X=X=X*X&X:X7XaX<X. @ ; P ` ` H K _ E CXVXVXy = i L F.CXCX6   . 2.fX=X&X=X=X;X=X=X9X=X=X",
"7X=X$X&X=X=X0X9X-X:XOX=XrXaXI.  + 1 P _ _ ` ` _ ) BXCXVXy + u ) F.CXVX0 X   J.gX X&X=X#X&X=X9X9X=X=X",
"=X=X=X&X=X9X9X=X-X=X9XqX9XaX'.  + - u L C C C C L P.~.~.q + p u ( ~.!.0     K.gX=XwX0X=X;X=X9X9X=X=X",
"=X=X=X=X=X=X=X=X=X=X=X=X=XpX<X  . . + @ @ @ - @ + .       + + @ .       o   K.sX.X=X0X=X=X=X=X=X=X=X",
"=X=X=X=X=X=X=X=X=X=X=X=X=XpX<X      . . . . . .   o o O O o   . O o * o o   K.sX.X=X0X=X=X=X=X=X=X=X"
};
