/* XPM */
static char *_6d7b87c2d0240c4e813bc5f99639ba0EFrOlHHtgcpYG1ov[] = {
/* columns rows colors chars-per-pixel */
"50 50 250 2 ",
"   c #297D49",
".  c #447953",
"X  c #2C993A",
"o  c #349D3C",
"O  c #3B9C3C",
"+  c #38943A",
"@  c #348936",
"#  c #1DA93E",
"$  c #28A73D",
"%  c #32A43D",
"&  c #3AA33E",
"*  c #479A3D",
"=  c #1F9B43",
"-  c #2A8A4C",
";  c #2D9D4D",
":  c #279948",
">  c #3C9E44",
",  c #3C9B4D",
"<  c #359846",
"1  c #2A8453",
"2  c #378B59",
"3  c #2B9A53",
"4  c #359753",
"5  c #339C53",
"6  c #349B59",
"7  c #3B9E5B",
"8  c #3D9A57",
"9  c #3A8C44",
"0  c #1DAC45",
"q  c #1DAC4B",
"w  c #1DA644",
"e  c #1DB34C",
"r  c #18B44C",
"t  c #1FAF51",
"y  c #1EB451",
"u  c #2DA543",
"i  c #25AB45",
"p  c #2BAB45",
"a  c #24A44C",
"s  c #29A34D",
"d  c #23AC4C",
"f  c #2BAC4B",
"g  c #24A747",
"h  c #34A443",
"j  c #3AA443",
"k  c #32A945",
"l  c #33A24B",
"z  c #3BA44A",
"x  c #33AB4B",
"c  c #3AAA4A",
"v  c #23B24D",
"b  c #2BB34D",
"n  c #24B146",
"m  c #35B24E",
"M  c #23A650",
"N  c #2DA452",
"B  c #25AC53",
"V  c #2BAB52",
"C  c #2DAC5A",
"Z  c #2FA358",
"A  c #32A354",
"S  c #33AA55",
"D  c #32A55A",
"F  c #3CA35B",
"G  c #33AD5C",
"H  c #3BA454",
"J  c #24B352",
"K  c #2AB353",
"L  c #26B855",
"P  c #33B454",
"I  c #36B156",
"U  c #3A9663",
"Y  c #38A960",
"T  c #3CBB64",
"R  c #4B9C42",
"E  c #479949",
"W  c #549D42",
"Q  c #458A5B",
"!  c #469A56",
"~  c #4B8A50",
"^  c #45A243",
"/  c #4EA345",
"(  c #49A74C",
")  c #52A34A",
"_  c #56A84A",
"`  c #46A755",
"'  c #59AC54",
"]  c #49B554",
"[  c #59B456",
"{  c #61A44A",
"}  c #68AA55",
"|  c #6BBA5D",
" . c #6AB35A",
".. c #76B65C",
"X. c #73AA59",
"o. c #578B65",
"O. c #479967",
"+. c #579669",
"@. c #589D72",
"#. c #489569",
"$. c #619D77",
"%. c #4DA464",
"&. c #4DA46A",
"*. c #47A769",
"=. c #55AA6C",
"-. c #47B36B",
";. c #56B669",
":. c #57AE75",
">. c #58AA78",
",. c #53B371",
"<. c #58B976",
"1. c #4DB471",
"2. c #69B864",
"3. c #73BC64",
"4. c #7ABC66",
"5. c #63AA7A",
"6. c #66BB7C",
"7. c #75B17C",
"8. c #3DC267",
"9. c #69C05F",
"0. c #59C163",
"q. c #5AC57A",
"w. c #66C668",
"e. c #7CC46B",
"r. c #76C76C",
"t. c #70CB79",
"y. c #8ABD69",
"u. c #88C46D",
"i. c #93C56E",
"p. c #8DC874",
"a. c #98CC76",
"s. c #87D279",
"d. c #9BD37D",
"f. c #99D67E",
"g. c #A5CE7A",
"h. c #A4D77E",
"j. c #66B986",
"k. c #74B38A",
"l. c #59AF80",
"z. c #5DC281",
"x. c #64C283",
"c. c #69C786",
"v. c #74CA8A",
"b. c #68D489",
"n. c #78C995",
"m. c #78D697",
"M. c #70CF90",
"N. c #8BBE95",
"B. c #9CD681",
"V. c #86D59B",
"C. c #87CE98",
"Z. c #A3D981",
"A. c #A6D886",
"S. c #B4D985",
"D. c #B2DF92",
"F. c #8DE493",
"G. c #ABE189",
"H. c #B5E38C",
"J. c #A9E794",
"K. c #B5E694",
"L. c #B8E897",
"P. c #B3F298",
"I. c #84DAA5",
"U. c #8BD7A4",
"Y. c #96D6AA",
"T. c #90CBA4",
"R. c #88E3A6",
"E. c #96E9AA",
"W. c #9BEBB5",
"Q. c #9AF7B9",
"!. c #90F0AC",
"~. c #A8E8BC",
"^. c #A4FABB",
"/. c #B3F1AA",
"(. c #A3DBB6",
"). c #C1DD8B",
"_. c #EFDD9A",
"`. c #EBDE95",
"'. c #F6DE97",
"]. c #F5DE9A",
"[. c #FCDE9C",
"{. c #F9DF96",
"}. c #F6DF8F",
"|. c #CCED9C",
" X c #C5E897",
".X c #D5EB9B",
"XX c #DDEC9C",
"oX c #D6E89A",
"OX c #C9F29C",
"+X c #D7F09D",
"@X c #C4E18F",
"#X c #EBE496",
"$X c #E4E59B",
"%X c #EDE59C",
"&X c #E4EC9D",
"*X c #EBE99D",
"=X c #E3E196",
"-X c #F3E496",
";X c #F9E395",
":X c #F4E49C",
">X c #FAE39C",
",X c #F3E99D",
"<X c #F9E99D",
"1X c #F4E997",
"2X c #EFE793",
"3X c #CEEEA2",
"4X c #D9EDA3",
"5X c #D4EEA3",
"6X c #C9F9A7",
"7X c #D2F3A3",
"8X c #DBF3A5",
"9X c #D3FBA5",
"0X c #DCF5AA",
"qX c #DDFBAB",
"wX c #D5FAAA",
"eX c #D1FFB2",
"rX c #E5EDA3",
"tX c #ECEBA2",
"yX c #EBE9A4",
"uX c #F5E5A1",
"iX c #FBE5A2",
"pX c #F3EAA2",
"aX c #FAEAA3",
"sX c #F6EDA9",
"dX c #E4F2A4",
"fX c #EBF2A5",
"gX c #E4F4AA",
"hX c #EBF4AA",
"jX c #E3FBAA",
"kX c #F3F3AB",
"lX c #F1F2A6",
"zX c #E6FEB3",
"xX c #AAEAC3",
"cX c #B4EBC3",
"vX c #A4FEC4",
"bX c #ABFCC5",
"nX c #ACFECB",
"mX c #AEF5C8",
"MX c #B2FCC5",
"NX c #B4FFCD",
"BX c #BAFDCD",
"VX c #B6F3C8",
"CX c #B5FED2",
"ZX c #BBFED2",
"AX c #BEFFDA",
"SX c #AFFFD0",
"DX c #9DF3C2",
"FX c #C3FED3",
"GX c #C7FFD9",
"HX c #C7FFE0",
/* pixels */
"#X,X<X<X;X}.}.}.-X1X<X:X-X>XaXuXyX4XwXeXP.t.] k m 0.F.6X6X0XgXrXyX*X:X>X[.[.>X<X:X,X>X:X-X%X%X%XpXpX",
":X:X>X>X;X;X;X;X-X1X-X:X:X%X%XtXrX5XL.s.s.0.c u x ] w.s.Z. X0XzXhXhXsXiXiX>X>X:X:X:X:X:X>X-X:X:X:X:X",
"uX>X:X:X>X>X>X>X<X-X`.%XkXyXrXgX0XK.u.R ( z u u p f z ^ } a./.OX X.XrXyX-X'.:X:X:X:X:X:X>X>X>X>X:X:X",
"iXuX:X:X>X>X>X>X:X>X%XtXrXXX4X3XD.4.) > < x f f b i x j E 2.F.e...i.@XdXpX:X>X:X:X:X:X:X>X>X>X>X:X'.",
"iXuX:X:X:X:X>X>XiX:XyXhXgXqXeXJ.3.) o z x P b J L n K m j ] w.^ * { a..XtXpX>X>X>X>X>X:X-X-X>X>X:X:X",
"uXuXuXuX>X:X:X:XaXuXyXdX3X6X6Xs.( z h $ f i 0 v e e d b x u k % o / u. XdXyXuXiX>X,X,X,X:X-X:X>X:X:X",
"uX:X:X:X>X>X:X:X:XlXdX@Xi.4.s.w.< h P d K J v v e e 0 v f i i m % ( s.OXgXpXuX:X:X>X,X,X,X%X:X:X:X>X",
":X:X:X:X:X:X:X-X*XrX Xa.{ * [ ] c p b K 0 L L e r e e d w b b b p j 3.G..XrXpX:X-X:X%X,XpX,X:X-X-X>X",
":X:X:X:X>X:X:X:XtX).a. .^ o % % m P d 0 e e L L r r e 0 v b v i p j R ..L.gXtXpXuX%X*X%XpX:X>X'.>X>X",
"-X-X:X,X>X:X%XtXdXg.} + % k $ p b d e v r e L r y r e L b v n n p k > ' d.3XrXyXtX*X*X*XpXuX>X>X>X>X",
";X;X-X:X:X%X*XhX7Xp.^ X $ n # b v 0 e L y e J L r r e n v d 0 0 b f k ( 4.A.|.8XhXrX&X*X%XiX>X[.[.>X",
";X;X-X,X*X$XXX0X6Xe.X k b n v 0 v L J y y e J J q e J v v v v v n d f c ( 3.A.OXqX8X4XrX%XiX[.[.[.[.",
"{.-X,XfXhX8X0XqXeXr.X f b v v i d J J 0 d K P B K q d K i d J e J L K g X ( r.B.K.H.D.oX&XsX>XiX>X>X",
"-X:X*XXX|.K.D.L.J.2.l s V K g S G w B K B N N N N G V g V K J J d d d v f u ( 2.e.y.y.S..XtX_.>X>X>X",
"aXpXoXS.y.X.} X.2.! < : s N N N S N M a N N : 5 ; S N s C B q t q i 0 v b g u ] _ ) _ y.|.dX=X%X>X>X",
"sXtX@Xi.{ * E E 7.C.m.b.-.F c.<.F c.q.F q.m.c.m.v.` ,.b.-.M J q T q.8.q q v i k j O * ..6XjX$X*X:X>X",
"%XfX|.X.R > E 6.MXFXNXNXv.=.bXV.+.~.W.O.I.SXCXFXcX5.C.^.q.: C N b.Q.b.a J J e n f h O | L.jXfXpX:X:X",
"#XfXOX3.> z , 6.NXY.5.k.@.@.BXY.o.cX~.O.O.I.HX~.7.~ T.BX,.: G : q.bXM.: M y r r b b & ' d.|.dX*X,X>X",
"%XkXOX .+ < < c.nXM.1 U 2 @.BXcXN.FX~.&.  >.CXT.. o.C.MXx.5 A 5 <.nXm.3 V B y e b b k ^ ..S.dX&X#X:X",
":XkX|...+ , < c.vXm.U *.2 >.xXGXFXGXE.O.1 j.CXY.o.o.C.NXx.6 F 6 x.nXm.6 C C J r e v k O W h.jX&X#X#X",
"%XtX|.d. .` 9 6.nXn.1 2 2 >.VXcXC.mXDX*.1 l.CXT.. Q Y.NX:.- 7 - j.nXM.- 3 C C q e n p & W h.jXXX*X%X",
"uXyX5XL.e.E 9 6.NXI.>.>.O.&.ZXY.Q Q.Q.*.>.I.AXY.@.Q C.NXm.,.j.8 j.SXR.<.z.-.M q v v p j / Z.qXXXtXpX",
"aXyX4X Xp.E 9 6.bXCXCXNXn.>.bXU.&.Q.!.&.m.vXAXZX~.=.n.NXnXbXvX6.c.nXNXvXvXb.C B J b u j W Z.qXXXyXpX",
"uX*XXX|.B.{ E =.v.V.V.I.:.O.M.z.*.z.c.7 x.I.v.n.n.=.=.c.m.I.M.,.&.c.m.R.M.1.G a d b u O W Z.qXrXyXyX",
":X#XfX.XS.s.' , 4 5 4 7 6 Y D D D A ; 5 A 5 4 4 7 F A ; ; A F F 5 7 6 5 ; N f a d b k > R Z.0XrX*X%X",
",X,X*X&X7XL.3.> l A D G Z C B B V S S A S A ; ; A S N N N N S S S A S A N N a i d m c O * Z.qXrXyX%X",
"`.aX,X=XdX|.4.+ H S G C B J J J B V f a V P V f a V K J V B V V V V V V K K v v v b k O W A.qXdXyX%X",
"-X<X>X#XfX8Xi.) z x V B B J J y d B i i K K K K d J v v J d d d v v J J v e v L K b h O W g.8XhXyX:X",
":X>XaX,XfX8XA. .^ h f J J J e q B J K J d d d L J K v d J v q d J v v e e e e v v x j R { g.8XfX%X-X",
">X-XpXlXhX9XK.e.( x d q J v J a V K K K J d q d K L d i K K d J J e e e e e e 0 i k j * } S.8X&X%X:X",
"iX-X$XoXOXP.J.t.c f v e v d S x V V V a V K a i d K f a N V f V d v e e e L v i p j / { y.).gXfXpX:X",
">XaXXXS.p.9.9.] u g L J J a l : ; N N : : N N N = N s : A A N N d L L v e e v f % ( e.G. XoXdXtX#X#X",
"iXpX.Xi._ & k $ w d J K V N ,.6.q.c.,.7 ,.<.F 1.q.A -.q.` %.<.-.C q d v L d w x ] r.K.wX+XdX&X*X#X:X",
"_.tX|...& $ $ # n J B V 3 *.!.NXMXbXR.&.R.W.&.m.Q.-.M.^.,.x.^.q.a q q 0 v b p k w.J.9XjXdXfX*X#X,X<X",
"%XhXOX| o $ n n b B B G 6 ,.bXMXn.n.c.O.^.nXO.U.nX&.m.NX%.6.NXb.a q J 0 q K f % r.6XqXXX*XsX,X#X,X<X",
"%XhXOX} X p v b L B M C 3 :.mXY.Q 1 2 #.~.mX@.U.mX=.6.E.6.c.E.q.B J L v q b f o e.eXgX=X%X>X>X-X-X-X",
"_.kX3XX.O k f d K B V D 3 :.BXY.Q #.#.@.xXVX$.Y.ZX5.Q 6.W.E.<.H M q J L v d x O e.wXhXpX>X'.>X-X:X-X",
"iXsX8Xa.' h f K a B G Y 6 :.BXY.#.k.k.@.xXcXo.T.ZXj.  ! MX^., ; f d q J v i u > 4.3XyXaX>X'.>X:X>X:X",
"iXyX4XK.r.o u P a B N Z 4 =.MX~.k.cX~.@.~.VXk.(.ZX5.2 %.^.!.H H V K d d v p k O u.0XkXiXiX'.-X-X<X>X",
"_.yX4XK.e.^ c f V B C N 5 %.MXFXVXGX~.o.Y.GXVXGXCX:.- 1.Q.!.A : V K d d b b c * u.0XtX_.uXuX%X,X:X>X",
"_.*XgXOXs.' j x g K P N ; *.v.E.E.W.v.%.c.E.E.!.m.-.: G b.b.A s V d v v v b k + y.qXtXuX:XiX%X%X:X:X",
">X,XdX+XG.e.[ j u p f S l z ! ! E ! , , ` ` 5 F : Z Z S S S S I f f f i i p h * y.qXhX:X].:X%X#X#X#X",
">X:X*X&X+XH.u._ O o h j z ^ > @ + + + > < X ; l s N N S ; l I x p p p p k % O * u.0XsX:X].:X:X,X#X#X",
"<X;X:X*X&X.XS.p.4.| | | | 3.3.3.4.3.3.r.2.;.[ > h : X z < o > o j & % % j & * W i..XyXuX'.>X>XuX#X#X",
";X-X<X,X*X&XXXoX7X9X9X6X3X7X8X8X.X.X7XwX6XA.u.{ R R ) ) ) W R / / / / * * * _ ..g.oXpXaXiX>X:X:X#X#X",
"-X-X>X>X-X:XpXlXfXdXdXdXdXfXfXtXtXlXhXhXgXoX@XS.A.f.B.d.d.B.a.B.Z.Z.Z.f.f.d.Z.H. X&X%XiX>X:X:X:X:X:X",
"-X-X>X>X{.'.>X>XpX*X#X$X#X,X,X%X`.%XyX$X&XfXfXjXjXqXqXqX8X8XqXzXqXqXqXqXqX9X9X9XdXtX:X:X].].pX>X>X>X",
":X:X>X;X[.[.[.].`.%XpXpX>X>X>X>XpX:XpXyX*X*X$X&XXX&XdXfXrXtXkX&XrX&XdXdXXXXXdXdX&X*XpXaXuXuXpX-X:X>X",
":X>X>X>X>X>X>XpXyXpX%X:XuX>X:X>X>X:X:X%X%X*XyX*X*X#X*X,X%X:X:X%XuX:XpXtX*XtX*X=X#X,X,X:X:X:X:X:X>X>X",
":X>X>X>X>X:XuXpXyXyX%X%XuX>X:X:X,X:X:X%X#X%XpX,X#X#X:X,X:X:X>X:X'.].:X,X*XsXpX#X-X,X,X#X:X:X:X>X>X>X"
};
